<?xml version="1.0" standalone="no"?>
<!DOCTYPE svg PUBLIC "-//W3C//DTD SVG 20010904//EN"
 "http://www.w3.org/TR/2001/REC-SVG-20010904/DTD/svg10.dtd">
<svg version="1.0" xmlns="http://www.w3.org/2000/svg"
 width="500.000000pt" height="500.000000pt" viewBox="0 0 500.000000 500.000000"
 preserveAspectRatio="xMidYMid meet">

<g transform="translate(0.000000,500.000000) scale(0.100000,-0.100000)"
fill="#000000" stroke="none">
<path d="M3547 3278 l-45 -53 -39 22 c-154 86 -366 93 -523 16 -71 -35 -159
-123 -193 -194 -50 -106 -57 -212 -21 -321 l16 -48 231 1 232 0 -122 43 c-68
24 -139 56 -158 70 -71 54 -100 159 -72 257 31 103 109 168 238 195 223 46
417 -82 470 -311 6 -27 13 -56 15 -62 2 -7 10 -13 19 -13 13 0 15 29 15 219 0
121 -4 222 -9 225 -5 4 -29 -18 -54 -46z"/>
<path d="M1050 3270 c0 -19 6 -20 93 -20 l92 0 155 -261 c85 -144 160 -268
165 -276 8 -11 36 -13 131 -11 l121 3 -158 265 c-87 146 -159 268 -159 273 0
4 48 7 106 7 95 0 105 2 102 18 -3 16 -28 17 -326 20 -317 2 -322 2 -322 -18z"/>
<path d="M2010 3270 c0 -18 8 -20 109 -22 l110 -3 -105 -190 c-58 -104 -125
-227 -150 -273 l-46 -83 32 3 c30 3 38 14 180 273 l148 270 96 3 c88 2 96 4
96 22 0 19 -8 20 -235 20 -227 0 -235 -1 -235 -20z"/>
<path d="M1450 2558 c0 -7 9 -26 20 -43 11 -16 20 -40 20 -52 0 -14 6 -23 15
-23 9 0 15 9 15 25 0 13 9 39 20 57 11 18 20 36 20 41 0 17 -19 5 -37 -23
l-19 -30 -17 30 c-19 31 -37 40 -37 18z"/>
<path d="M1656 2514 c-14 -31 -26 -60 -26 -65 0 -15 27 -10 34 6 3 8 17 15 31
15 14 0 28 -7 31 -15 4 -8 13 -15 21 -15 8 0 13 6 10 13 -39 93 -52 117 -63
117 -7 0 -24 -25 -38 -56z m54 -16 c0 -5 -7 -8 -15 -8 -15 0 -20 21 -8 33 7 7
23 -11 23 -25z"/>
<path d="M1840 2505 c0 -51 3 -65 15 -65 8 0 15 7 15 15 0 8 6 15 14 15 7 0
19 -7 26 -15 7 -8 19 -15 27 -15 13 0 13 3 3 15 -11 13 -11 20 0 40 7 13 10
31 7 39 -7 19 -47 36 -83 36 -23 0 -24 -3 -24 -65z m75 15 c0 -8 -10 -16 -22
-18 -18 -3 -23 2 -23 18 0 16 5 21 23 18 12 -2 22 -10 22 -18z"/>
<path d="M2070 2563 c-41 -15 -54 -78 -22 -106 25 -22 75 -21 95 1 20 22 22
75 4 90 -16 14 -58 22 -77 15z m55 -57 c0 -36 -26 -56 -49 -37 -16 14 -22 52
-9 65 4 4 19 6 33 4 20 -2 25 -8 25 -32z"/>
<path d="M2250 2505 c0 -51 3 -65 15 -65 11 0 15 11 15 37 l0 36 28 -36 c41
-54 52 -48 52 29 0 48 -3 65 -12 62 -7 -3 -15 -20 -18 -38 l-5 -34 -28 37
c-15 20 -32 37 -38 37 -5 0 -9 -29 -9 -65z"/>
<path d="M2578 2559 c-30 -17 -22 -48 17 -65 47 -19 46 -38 -1 -29 -28 5 -35
3 -32 -7 6 -17 65 -23 84 -7 25 21 16 47 -21 59 -43 14 -46 30 -5 30 32 0 40
14 14 24 -22 8 -36 7 -56 -5z"/>
<path d="M2747 2564 c-4 -4 -7 -34 -7 -66 l0 -58 50 0 c28 0 50 5 50 10 0 6
-16 10 -35 10 -24 0 -35 5 -35 15 0 10 10 15 30 15 37 0 40 18 3 22 -42 5 -41
28 2 28 25 0 35 4 33 13 -5 13 -79 22 -91 11z"/>
<path d="M2928 2564 c-5 -4 -8 -34 -8 -66 0 -45 3 -58 15 -58 8 0 15 7 15 15
0 8 9 15 19 15 10 0 21 -7 25 -15 3 -8 12 -15 21 -15 17 0 20 16 4 26 -8 4 -8
9 0 17 13 13 15 64 3 71 -17 10 -87 18 -94 10z m72 -44 c0 -15 -7 -20 -25 -20
-18 0 -25 5 -25 20 0 15 7 20 25 20 18 0 25 -5 25 -20z"/>
<path d="M3120 2506 l0 -66 45 0 c25 0 45 5 45 10 0 6 -13 10 -29 10 -29 0
-30 2 -33 52 -2 30 -8 53 -15 56 -10 3 -13 -14 -13 -62z"/>
<path d="M3290 2506 c0 -53 3 -66 15 -66 13 0 15 11 13 62 -2 38 -8 63 -15 66
-10 3 -13 -14 -13 -62z"/>
<path d="M3410 2505 c0 -51 3 -65 15 -65 11 0 15 11 15 37 l0 38 31 -38 c46
-56 61 -50 57 25 -2 38 -8 63 -15 66 -9 2 -13 -8 -13 -32 0 -20 -2 -36 -5 -36
-3 0 -19 16 -36 35 -17 19 -35 35 -40 35 -5 0 -9 -29 -9 -65z"/>
<path d="M1680 2035 l0 -265 -110 0 c-103 0 -110 -1 -110 -20 0 -20 7 -20 335
-20 328 0 335 0 335 20 0 19 -7 20 -110 20 l-110 0 0 265 0 265 -115 0 -115 0
0 -265z"/>
<path d="M3530 2262 c30 -57 42 -135 31 -202 -44 -275 -375 -390 -629 -220
-96 65 -162 156 -207 290 -13 38 -28 65 -36 65 -11 0 -15 -42 -17 -224 -1
-137 1 -228 7 -234 14 -14 35 6 82 75 l39 58 48 -34 c110 -78 218 -116 332
-116 145 0 254 45 356 145 98 97 154 231 154 373 l0 62 -90 0 -90 0 20 -38z"/>
<path d="M1878 1533 c6 -2 18 -2 25 0 6 3 1 5 -13 5 -14 0 -19 -2 -12 -5z"/>
<path d="M2028 1533 c6 -2 18 -2 25 0 6 3 1 5 -13 5 -14 0 -19 -2 -12 -5z"/>
<path d="M2191 1513 l-13 -28 -14 25 c-7 14 -13 21 -13 15 0 -5 6 -21 13 -34
l14 -25 17 33 c9 18 15 35 12 37 -2 2 -9 -8 -16 -23z"/>
<path d="M2290 1505 c0 -32 2 -35 28 -34 23 2 24 2 5 6 -27 5 -30 20 -5 26 16
4 16 5 0 6 -26 2 -22 19 5 24 19 4 18 4 -5 6 -26 1 -28 -2 -28 -34z"/>
<path d="M2432 1508 c-2 -34 1 -38 21 -37 15 1 17 3 5 6 -10 2 -18 17 -21 36
-4 31 -4 31 -5 -5z"/>
<path d="M2560 1525 c-10 -12 -11 -21 -3 -33 13 -21 55 -22 60 -2 4 12 3 12
-5 2 -14 -20 -47 -10 -47 13 0 23 33 33 47 13 8 -10 9 -10 5 2 -5 21 -41 24
-57 5z"/>
<path d="M2711 1503 c0 -21 3 -32 6 -25 2 6 11 12 18 12 8 0 16 4 19 9 4 5 -3
7 -14 4 -14 -4 -20 0 -20 12 0 12 6 16 20 12 11 -3 18 -1 14 4 -3 5 -14 9 -25
9 -15 0 -19 -7 -18 -37z"/>
<path d="M2850 1505 c0 -32 2 -35 28 -34 23 2 24 2 5 6 -27 5 -30 20 -5 26 16
4 16 5 0 6 -26 2 -22 19 5 24 19 4 18 4 -5 6 -26 1 -28 -2 -28 -34z"/>
<path d="M3008 1533 c27 -6 29 -30 2 -35 -19 -3 -18 -4 3 -14 21 -9 23 -8 22
20 0 26 -4 31 -25 33 -22 1 -22 1 -2 -4z"/>
<path d="M1922 1505 c0 -16 2 -22 5 -12 2 9 2 23 0 30 -3 6 -5 -1 -5 -18z"/>
<path d="M2028 1503 c6 -2 18 -2 25 0 6 3 1 5 -13 5 -14 0 -19 -2 -12 -5z"/>
<path d="M1878 1473 c6 -2 18 -2 25 0 6 3 1 5 -13 5 -14 0 -19 -2 -12 -5z"/>
<path d="M2028 1473 c6 -2 18 -2 25 0 6 3 1 5 -13 5 -14 0 -19 -2 -12 -5z"/>
</g>
</svg>
